<?xml version="1.0" encoding="utf-8"?>
<svg width="6776px" height="3600px" viewBox="0 0 6776 3600" version="1.1" xmlns:xlink="http://www.w3.org/1999/xlink" xmlns="http://www.w3.org/2000/svg">
  <defs>
    <path d="M0 0L3861.9 0L3861.9 3600L0 3600L0 0Z" id="path_1" />
    <clipPath id="mask_1">
      <use xlink:href="#path_1" />
    </clipPath>
  </defs>
  <g id="Contacts-icon-Copy-3">
    <g id="Contacts-icon">
      <path d="M0 0L3861.9 0L3861.9 3600L0 3600L0 0Z" id="Background" fill="none" fill-rule="evenodd" stroke="none" />
      <g clip-path="url(#mask_1)">
        <path d="M1921.3 238.5C1558.94 246.094 1329.64 382.781 1230.98 594C1137.15 795.094 1156.76 1048.5 1223.74 1311.75C1187.84 1351.13 1158.27 1406.53 1165.81 1489.5L1165.81 1494C1178.79 1581.75 1207.15 1643.63 1243.05 1687.5C1260.25 1708.31 1284.69 1709.44 1305.81 1721.25C1324.51 1819.41 1366.45 1913.06 1414.42 1986.75C1416.84 1997.44 1421.66 2007.28 1428.9 2016C1428.9 2016 1436.75 2025.28 1438.56 2027.25C1462.7 2061 1474.76 2107.97 1474.76 2160C1474.76 2215.41 1473.86 2266.88 1467.52 2324.25C1444.29 2378.81 1386.36 2422.41 1293.74 2466C1196.89 2511.56 1070.17 2553.47 941.339 2605.5C812.508 2657.53 681.867 2719.97 576.872 2819.25C471.877 2918.53 396.751 3056.06 386.191 3235.5L381.363 3312L3480.54 3312L3475.71 3235.5C3465.15 3056.06 3391.84 2918.81 3287.44 2819.25C3183.05 2719.69 3051.81 2657.53 2922.98 2605.5C2794.15 2553.47 2666.52 2511.84 2568.16 2466C2472.82 2421.56 2413.09 2376.28 2387.14 2319.75C2381.1 2251.69 2379.9 2197.97 2379.9 2137.5C2379.9 2098.97 2394.08 2064.09 2418.52 2029.5C2419.12 2028.66 2420.33 2028.09 2420.93 2027.25C2421.23 2026.69 2425.76 2022.75 2425.76 2022.75C2435.41 2013.47 2442.05 2001.66 2445.07 1989C2491.83 1914.19 2530.75 1819.13 2548.86 1723.5C2572.99 1711.69 2600.15 1710.28 2618.85 1687.5C2655.96 1642.22 2677.69 1577.81 2686.44 1489.5C2693.37 1413.28 2669.84 1357.88 2633.33 1316.25C2673.46 1200.94 2721.13 1016.44 2705.74 828C2697.3 724.5 2668.03 621.281 2601.96 535.5C2542.22 457.875 2445.67 404.719 2324.38 380.25C2242.62 278.438 2094.18 238.5 1923.71 238.5L1921.3 238.5ZM1923.65 382.5C1924.55 382.5 1925.15 382.5 1926.06 382.5C2080.23 383.063 2178.89 423.563 2210.87 474.75L2230.18 506.25L2268.8 510.75C2375.01 524.531 2433.24 562.781 2476.38 618.75C2519.52 674.719 2544.27 752.906 2551.2 839.25C2565.39 1012.22 2511.68 1215 2476.38 1307.25L2452.24 1368L2512.59 1397.25C2511.98 1399.22 2537.33 1423.12 2534.31 1476C2534.31 1477.12 2534.31 1477.12 2534.31 1478.25C2527.07 1546.03 2508.36 1584.28 2495.69 1599.75C2482.72 1615.5 2476.08 1613.25 2478.79 1613.25L2411.21 1613.25L2401.56 1676.25C2388.28 1769.63 2337.29 1887.19 2292.94 1946.25L2290.53 1946.25C2286 1952.44 2282.68 1959.75 2278.46 1966.5C2258.24 1988.44 2227.77 2017.41 2184.32 2052C2112.22 2109.38 2016.57 2160 1930.89 2160C1845.8 2160 1749.26 2106.84 1675.04 2047.5C1610.77 1996.03 1572.45 1951.87 1561.59 1939.5C1561.29 1938.94 1561.89 1937.81 1561.59 1937.25C1516.03 1875.94 1463.84 1768.5 1450.56 1676.25L1443.32 1613.25L1380.57 1613.25C1377.85 1612.12 1370.61 1608.47 1363.67 1599.75C1350.09 1583.16 1330.78 1544.34 1320.22 1478.25C1320.22 1476.84 1320.22 1477.41 1320.22 1476C1319.92 1474.87 1320.53 1474.87 1320.22 1473.75C1319.02 1419.19 1355.22 1388.81 1349.19 1392.75L1392.63 1363.5L1380.57 1314C1309.36 1051.59 1298.2 813.938 1373.32 652.5C1448.45 491.625 1600.51 389.813 1923.65 382.5L1923.65 382.5ZM1629.24 2198.25C1710.7 2254.22 1812.68 2304 1930.95 2304C2046.81 2304 2146.07 2256.75 2225.42 2202.75C2225.72 2246.63 2227.23 2291.63 2232.66 2346.75L2232.66 2355.75L2237.49 2364.75C2251.07 2397.94 2270.38 2426.06 2293 2452.5C2292.1 2455.31 2291.19 2458.41 2290.59 2461.5C2290.59 2461.5 2272.19 2508.75 2218.18 2560.5C2164.17 2612.25 2080.3 2664 1930.95 2664C1782.21 2664 1695.31 2610 1638.89 2556C1582.47 2502 1564.07 2452.5 1564.07 2452.5C1586.4 2425.5 1604.8 2396.53 1617.17 2362.5L1622 2349C1628.64 2294.44 1629.24 2245.22 1629.24 2198.25L1629.24 2198.25ZM2413.69 2551.5C2440.84 2567.81 2468.9 2583 2498.17 2596.5C2611.01 2648.81 2738.93 2689.31 2860.22 2738.25C2981.51 2787.19 3094.65 2842.59 3176.41 2920.5C3241.58 2982.66 3280.81 3065.34 3301.93 3168L559.977 3168C581.096 3065.34 620.017 2982.66 685.488 2920.5C767.554 2842.59 882.807 2787.19 1004.1 2738.25C1125.38 2689.31 1252.1 2649.09 1363.73 2596.5C1391.49 2583.28 1419.85 2569.5 1445.8 2553.75C1463 2582.72 1489.55 2620.41 1527.87 2657.25C1606.61 2732.91 1739.97 2808 1930.95 2808C2121.33 2808 2251.97 2733.75 2329.21 2659.5C2371.45 2619 2397.09 2581.31 2413.69 2551.5L2413.69 2551.5Z" id="Shape" fill="#03FF83" fill-rule="evenodd" stroke="none" />
      </g>
    </g>
    <g id="Contacts-icon-Copy" transform="translate(1457.0488 0)">
      <path d="M0 0L3861.9 0L3861.9 3600L0 3600L0 0Z" id="Background" fill="none" fill-rule="evenodd" stroke="none" />
      <g clip-path="url(#mask_1)">
        <path d="M1921.3 238.5C1558.94 246.094 1329.64 382.781 1230.98 594C1137.15 795.094 1156.76 1048.5 1223.74 1311.75C1187.84 1351.13 1158.27 1406.53 1165.81 1489.5L1165.81 1494C1178.79 1581.75 1207.15 1643.63 1243.05 1687.5C1260.25 1708.31 1284.69 1709.44 1305.81 1721.25C1324.51 1819.41 1366.45 1913.06 1414.42 1986.75C1416.84 1997.44 1421.66 2007.28 1428.9 2016C1428.9 2016 1436.75 2025.28 1438.56 2027.25C1462.7 2061 1474.76 2107.97 1474.76 2160C1474.76 2215.41 1473.86 2266.88 1467.52 2324.25C1444.29 2378.81 1386.36 2422.41 1293.74 2466C1196.89 2511.56 1070.17 2553.47 941.339 2605.5C812.508 2657.53 681.867 2719.97 576.872 2819.25C471.877 2918.53 396.751 3056.06 386.191 3235.5L381.363 3312L3480.54 3312L3475.71 3235.5C3465.15 3056.06 3391.84 2918.81 3287.44 2819.25C3183.05 2719.69 3051.81 2657.53 2922.98 2605.5C2794.15 2553.47 2666.52 2511.84 2568.16 2466C2472.82 2421.56 2413.09 2376.28 2387.14 2319.75C2381.1 2251.69 2379.9 2197.97 2379.9 2137.5C2379.9 2098.97 2394.08 2064.09 2418.52 2029.5C2419.12 2028.66 2420.33 2028.09 2420.93 2027.25C2421.23 2026.69 2425.76 2022.75 2425.76 2022.75C2435.41 2013.47 2442.05 2001.66 2445.07 1989C2491.83 1914.19 2530.75 1819.13 2548.86 1723.5C2572.99 1711.69 2600.15 1710.28 2618.85 1687.5C2655.96 1642.22 2677.69 1577.81 2686.44 1489.5C2693.37 1413.28 2669.84 1357.88 2633.33 1316.25C2673.46 1200.94 2721.13 1016.44 2705.75 828C2697.3 724.5 2668.03 621.281 2601.96 535.5C2542.22 457.875 2445.67 404.719 2324.38 380.25C2242.62 278.438 2094.18 238.5 1923.71 238.5L1921.3 238.5ZM1923.65 382.5C1924.55 382.5 1925.15 382.5 1926.06 382.5C2080.23 383.063 2178.89 423.563 2210.87 474.75L2230.18 506.25L2268.8 510.75C2375.01 524.531 2433.24 562.781 2476.38 618.75C2519.52 674.719 2544.27 752.906 2551.2 839.25C2565.39 1012.22 2511.68 1215 2476.38 1307.25L2452.24 1368L2512.59 1397.25C2511.98 1399.22 2537.33 1423.12 2534.31 1476C2534.31 1477.12 2534.31 1477.12 2534.31 1478.25C2527.07 1546.03 2508.36 1584.28 2495.69 1599.75C2482.72 1615.5 2476.08 1613.25 2478.79 1613.25L2411.21 1613.25L2401.56 1676.25C2388.28 1769.63 2337.29 1887.19 2292.94 1946.25L2290.53 1946.25C2286 1952.44 2282.68 1959.75 2278.46 1966.5C2258.24 1988.44 2227.77 2017.41 2184.32 2052C2112.22 2109.38 2016.57 2160 1930.89 2160C1845.8 2160 1749.26 2106.84 1675.04 2047.5C1610.77 1996.03 1572.45 1951.87 1561.59 1939.5C1561.29 1938.94 1561.89 1937.81 1561.59 1937.25C1516.03 1875.94 1463.84 1768.5 1450.56 1676.25L1443.32 1613.25L1380.57 1613.25C1377.85 1612.12 1370.61 1608.47 1363.67 1599.75C1350.09 1583.16 1330.78 1544.34 1320.22 1478.25C1320.22 1476.84 1320.22 1477.41 1320.22 1476C1319.92 1474.87 1320.53 1474.87 1320.22 1473.75C1319.02 1419.19 1355.22 1388.81 1349.19 1392.75L1392.63 1363.5L1380.57 1314C1309.36 1051.59 1298.2 813.938 1373.32 652.5C1448.45 491.625 1600.51 389.813 1923.65 382.5L1923.65 382.5ZM1629.24 2198.25C1710.7 2254.22 1812.68 2304 1930.95 2304C2046.81 2304 2146.07 2256.75 2225.42 2202.75C2225.72 2246.63 2227.23 2291.63 2232.66 2346.75L2232.66 2355.75L2237.49 2364.75C2251.07 2397.94 2270.38 2426.06 2293 2452.5C2292.1 2455.31 2291.19 2458.41 2290.59 2461.5C2290.59 2461.5 2272.19 2508.75 2218.18 2560.5C2164.17 2612.25 2080.3 2664 1930.95 2664C1782.21 2664 1695.31 2610 1638.89 2556C1582.47 2502 1564.07 2452.5 1564.07 2452.5C1586.4 2425.5 1604.8 2396.53 1617.17 2362.5L1622 2349C1628.64 2294.44 1629.24 2245.22 1629.24 2198.25L1629.24 2198.25ZM2413.69 2551.5C2440.84 2567.81 2468.9 2583 2498.17 2596.5C2611.01 2648.81 2738.93 2689.31 2860.22 2738.25C2981.51 2787.19 3094.65 2842.59 3176.41 2920.5C3241.58 2982.66 3280.81 3065.34 3301.93 3168L559.977 3168C581.096 3065.34 620.017 2982.66 685.488 2920.5C767.554 2842.59 882.807 2787.19 1004.1 2738.25C1125.38 2689.31 1252.1 2649.09 1363.73 2596.5C1391.49 2583.28 1419.85 2569.5 1445.8 2553.75C1463 2582.72 1489.55 2620.41 1527.87 2657.25C1606.61 2732.91 1739.97 2808 1930.95 2808C2121.33 2808 2251.97 2733.75 2329.21 2659.5C2371.45 2619 2397.09 2581.31 2413.69 2551.5L2413.69 2551.5Z" id="Shape" fill="#03FF83" fill-rule="evenodd" stroke="none" />
      </g>
    </g>
    <g id="Contacts-icon-Copy-2" transform="translate(2914.0996 0)">
      <path d="M0 0L3861.9 0L3861.9 3600L0 3600L0 0Z" id="Background" fill="none" fill-rule="evenodd" stroke="none" />
      <g clip-path="url(#mask_1)">
        <path d="M1921.3 238.5C1558.94 246.094 1329.64 382.781 1230.98 594C1137.15 795.094 1156.76 1048.5 1223.74 1311.75C1187.84 1351.13 1158.27 1406.53 1165.81 1489.5L1165.81 1494C1178.79 1581.75 1207.15 1643.63 1243.05 1687.5C1260.25 1708.31 1284.69 1709.44 1305.81 1721.25C1324.51 1819.41 1366.45 1913.06 1414.42 1986.75C1416.84 1997.44 1421.66 2007.28 1428.9 2016C1428.9 2016 1436.75 2025.28 1438.56 2027.25C1462.7 2061 1474.76 2107.97 1474.76 2160C1474.76 2215.41 1473.86 2266.88 1467.52 2324.25C1444.29 2378.81 1386.36 2422.41 1293.74 2466C1196.89 2511.56 1070.17 2553.47 941.339 2605.5C812.508 2657.53 681.867 2719.97 576.872 2819.25C471.877 2918.53 396.751 3056.06 386.191 3235.5L381.363 3312L3480.54 3312L3475.71 3235.5C3465.15 3056.06 3391.84 2918.81 3287.44 2819.25C3183.05 2719.69 3051.81 2657.53 2922.98 2605.5C2794.15 2553.47 2666.52 2511.84 2568.16 2466C2472.82 2421.56 2413.09 2376.28 2387.14 2319.75C2381.1 2251.69 2379.9 2197.97 2379.9 2137.5C2379.9 2098.97 2394.08 2064.09 2418.52 2029.5C2419.12 2028.66 2420.33 2028.09 2420.93 2027.25C2421.23 2026.69 2425.76 2022.75 2425.76 2022.75C2435.41 2013.47 2442.05 2001.66 2445.07 1989C2491.83 1914.19 2530.75 1819.13 2548.86 1723.5C2572.99 1711.69 2600.15 1710.28 2618.85 1687.5C2655.96 1642.22 2677.69 1577.81 2686.44 1489.5C2693.37 1413.28 2669.84 1357.88 2633.33 1316.25C2673.46 1200.94 2721.13 1016.44 2705.74 828C2697.3 724.5 2668.03 621.281 2601.96 535.5C2542.22 457.875 2445.67 404.719 2324.38 380.25C2242.62 278.438 2094.18 238.5 1923.71 238.5L1921.3 238.5ZM1923.65 382.5C1924.55 382.5 1925.15 382.5 1926.06 382.5C2080.23 383.063 2178.89 423.563 2210.87 474.75L2230.18 506.25L2268.8 510.75C2375.01 524.531 2433.24 562.781 2476.38 618.75C2519.52 674.719 2544.27 752.906 2551.2 839.25C2565.39 1012.22 2511.68 1215 2476.38 1307.25L2452.24 1368L2512.59 1397.25C2511.98 1399.22 2537.33 1423.12 2534.31 1476C2534.31 1477.12 2534.31 1477.12 2534.31 1478.25C2527.07 1546.03 2508.36 1584.28 2495.69 1599.75C2482.72 1615.5 2476.08 1613.25 2478.79 1613.25L2411.21 1613.25L2401.56 1676.25C2388.28 1769.63 2337.29 1887.19 2292.94 1946.25L2290.53 1946.25C2286 1952.44 2282.68 1959.75 2278.46 1966.5C2258.24 1988.44 2227.77 2017.41 2184.32 2052C2112.22 2109.38 2016.57 2160 1930.89 2160C1845.8 2160 1749.26 2106.84 1675.04 2047.5C1610.77 1996.03 1572.45 1951.87 1561.59 1939.5C1561.29 1938.94 1561.89 1937.81 1561.59 1937.25C1516.03 1875.94 1463.84 1768.5 1450.56 1676.25L1443.32 1613.25L1380.57 1613.25C1377.85 1612.12 1370.61 1608.47 1363.67 1599.75C1350.09 1583.16 1330.78 1544.34 1320.22 1478.25C1320.22 1476.84 1320.22 1477.41 1320.22 1476C1319.92 1474.87 1320.53 1474.87 1320.22 1473.75C1319.02 1419.19 1355.22 1388.81 1349.19 1392.75L1392.63 1363.5L1380.57 1314C1309.36 1051.59 1298.2 813.938 1373.32 652.5C1448.45 491.625 1600.51 389.813 1923.65 382.5L1923.65 382.5ZM1629.24 2198.25C1710.7 2254.22 1812.68 2304 1930.95 2304C2046.81 2304 2146.07 2256.75 2225.42 2202.75C2225.72 2246.63 2227.23 2291.63 2232.66 2346.75L2232.66 2355.75L2237.49 2364.75C2251.07 2397.94 2270.38 2426.06 2293 2452.5C2292.1 2455.31 2291.19 2458.41 2290.59 2461.5C2290.59 2461.5 2272.19 2508.75 2218.18 2560.5C2164.17 2612.25 2080.3 2664 1930.95 2664C1782.21 2664 1695.31 2610 1638.89 2556C1582.47 2502 1564.07 2452.5 1564.07 2452.5C1586.4 2425.5 1604.8 2396.53 1617.17 2362.5L1622 2349C1628.64 2294.44 1629.24 2245.22 1629.24 2198.25L1629.24 2198.25ZM2413.69 2551.5C2440.84 2567.81 2468.9 2583 2498.17 2596.5C2611.01 2648.81 2738.93 2689.31 2860.22 2738.25C2981.51 2787.19 3094.65 2842.59 3176.41 2920.5C3241.58 2982.66 3280.81 3065.34 3301.93 3168L559.977 3168C581.096 3065.34 620.017 2982.66 685.488 2920.5C767.554 2842.59 882.807 2787.19 1004.1 2738.25C1125.38 2689.31 1252.1 2649.09 1363.73 2596.5C1391.49 2583.28 1419.85 2569.5 1445.8 2553.75C1463 2582.72 1489.55 2620.41 1527.87 2657.25C1606.61 2732.91 1739.97 2808 1930.95 2808C2121.33 2808 2251.97 2733.75 2329.21 2659.5C2371.45 2619 2397.09 2581.31 2413.69 2551.5L2413.69 2551.5Z" id="Shape" fill="#03FF83" fill-rule="evenodd" stroke="none" />
      </g>
    </g>
  </g>
</svg>
