<?xml version="1.0" encoding="utf-8"?>
<svg width="3276px" height="2800px" viewBox="0 0 3276 3276" version="1.1" xmlns:xlink="http://www.w3.org/1999/xlink" xmlns="http://www.w3.org/2000/svg">
  <defs>
    <path d="M0 0L3276 0L3276 3276L0 3276L0 0Z" id="path_1" />
    <clipPath id="mask_1">
      <use xlink:href="#path_1" />
    </clipPath>
  </defs>
  <g id="Home-icon-2">
    <path d="M0 0L3276 0L3276 3276L0 3276L0 0Z" id="Background" fill="none" fill-rule="evenodd" stroke="none" />
    <g clip-path="url(#mask_1)">
      <path d="M2520 255.938C2450.6 255.938 2394 312.539 2394 381.938L2394 984.375L1728.56 318.938C1679.34 269.719 1596.66 269.719 1547.44 318.938L70.875 1799.44C21.6563 1848.66 21.6563 1927.41 70.875 1976.63C120.094 2025.84 198.844 2025.84 248.063 1976.63L1638 586.688L3031.88 1980.56C3056.48 2005.17 3089.95 2019.94 3122.44 2019.94C3154.92 2019.94 3184.45 2005.17 3209.06 1980.56C3258.28 1931.34 3258.28 1852.59 3209.06 1803.38L2772 1366.31L2772 381.938C2772 312.539 2715.4 255.938 2646 255.938L2520 255.938ZM1638 819L252 2205L252 2898C252 3106.69 421.313 3276 630 3276L2646 3276C2854.69 3276 3024 3106.69 3024 2898L3024 2205L1638 819ZM1386 2016L1890 2016C1959.4 2016 2016 2072.6 2016 2142L2016 2898C2016 2967.4 1959.4 3024 1890 3024L1386 3024C1316.6 3024 1260 2967.4 1260 2898L1260 2142C1260 2072.6 1316.6 2016 1386 2016L1386 2016Z" id="Shape" fill="#03FF83" fill-rule="evenodd" stroke="none" />
    </g>
  </g>
</svg>