<?xml version="1.0" encoding="utf-8"?>
<svg width="2700px" height="2500px" viewBox="0 0 2876 2876" version="1.1" xmlns:xlink="http://www.w3.org/1999/xlink" xmlns="http://www.w3.org/2000/svg">
  <defs>
    <path d="M0 0L2876 0L2876 2876L0 2876L0 0Z" id="path_1" />
    <clipPath id="mask_1">
      <use xlink:href="#path_1" />
    </clipPath>
  </defs>
  <g id="News-icon-2">
    <path d="M0 0L2876 0L2876 2876L0 2876L0 0Z" id="Background" fill="none" fill-rule="evenodd" stroke="none" />
    <g clip-path="url(#mask_1)">
      <path d="M1870.09 217.748C1865.34 218.612 1860.59 219.908 1856.27 221.205L110.619 221.205C107.162 221.205 103.705 221.205 100.248 221.205C43.2123 226.39 -0.428907 274.352 0.00318451 331.82L0.00318451 2098.21C0.00318451 2359.62 146.05 2520.79 283.455 2589.07C420.86 2657.34 553.08 2654.74 553.08 2654.74L2322.93 2654.74C2322.93 2654.74 2332.43 2654.74 2333.3 2654.74C2334.59 2654.74 2335.46 2654.74 2336.75 2654.74C2356.2 2654.74 2466.81 2651.72 2592.55 2589.07C2723.91 2523.39 2860.88 2372.59 2872.55 2132.78C2872.55 2130.62 2872.55 2128.02 2872.55 2125.86C2872.55 2123.27 2876 2121.54 2876 2118.95C2876.44 2113.33 2876.44 2107.28 2876 2101.67C2876 2098.21 2876 2094.75 2876 2091.3L2876 888.354C2876 887.057 2876 886.193 2876 884.897C2876 884.897 2875.57 807.12 2834.52 725.887C2797.36 652 2707.49 571.199 2582.18 556.508C2570.08 552.187 2557.12 549.594 2544.16 549.594L1991.08 549.594L1991.08 352.56C1991.94 345.647 1991.94 338.733 1991.08 331.82C1991.51 327.067 1991.51 322.746 1991.08 317.993C1991.08 315.833 1991.08 313.24 1991.08 311.08C1991.08 309.783 1991.08 308.919 1991.08 307.623C1990.22 305.462 1988.92 302.87 1987.62 300.709C1987.62 299.413 1987.62 298.549 1987.62 297.253C1986.76 293.796 1985.46 290.339 1984.17 286.883C1982.01 283.426 1979.85 279.969 1977.25 276.512C1974.23 270.463 1970.77 264.846 1966.88 259.229C1963.43 256.636 1959.97 254.476 1956.51 252.315C1952.19 247.13 1947.87 242.809 1942.69 238.488C1941.39 238.488 1940.53 238.488 1939.23 238.488C1927.56 230.279 1915.03 224.661 1901.2 221.205C1891.27 218.612 1880.46 217.316 1870.09 217.748L1870.09 217.748ZM221.23 442.461L1769.85 442.461L1769.85 636.038C1766.82 650.729 1766.82 666.284 1769.85 680.975L1769.85 2098.23C1769.85 2239.96 1814.78 2349.71 1877 2433.54L553.077 2433.54C553.077 2433.54 502.954 2433.97 442.461 2416.25C422.153 2410.2 400.98 2402.43 380.24 2392.06C296.414 2350.58 221.23 2287.49 221.23 2098.23L221.23 442.461ZM442.461 663.692C381.536 663.692 331.846 713.383 331.846 774.308L331.846 995.539C331.846 1056.46 381.536 1106.15 442.461 1106.15L1548.61 1106.15C1609.54 1106.15 1659.23 1056.46 1659.23 995.539L1659.23 774.308C1659.23 713.383 1609.54 663.692 1548.61 663.692L442.461 663.692ZM1991.08 770.852L2233.05 770.852C2212.31 831.344 2212.31 881.467 2212.31 881.467C2212.31 882.763 2212.31 883.627 2212.31 884.924L2212.31 1991.08C2211.88 2030.83 2232.62 2067.99 2267.18 2088.3C2301.75 2108.17 2344.1 2108.17 2378.66 2088.3C2413.23 2067.99 2433.97 2030.83 2433.54 1991.08L2433.54 884.924C2433.97 881.899 2436.13 854.677 2450.82 826.159C2465.95 796.345 2473.72 774.308 2544.16 774.308C2613.72 774.308 2621.93 795.481 2637.49 826.159C2652.18 855.541 2654.34 885.356 2654.77 888.38C2654.77 888.38 2654.77 891.837 2654.77 891.837L2654.77 2101.69C2654.77 2105.15 2654.77 2108.61 2654.77 2112.06C2651.75 2287.92 2578.29 2347.55 2495.76 2388.6C2411.5 2430.51 2322.92 2433.54 2322.92 2433.54C2322.92 2433.54 2234.35 2431.38 2150.09 2388.6C2065.83 2345.82 1991.08 2283.6 1991.08 2098.24L1991.08 770.852ZM411.381 1327.39C350.456 1336.03 307.679 1392.64 316.321 1453.56C324.963 1514.49 381.567 1557.26 442.492 1548.62L774.338 1548.62C814.09 1549.05 851.25 1528.31 871.558 1493.75C891.435 1459.18 891.435 1416.83 871.558 1382.27C851.25 1347.7 814.09 1326.96 774.338 1327.39L442.492 1327.39C439.035 1327.39 435.578 1327.39 432.121 1327.39C428.665 1327.39 425.208 1327.39 421.751 1327.39C418.294 1327.39 414.838 1327.39 411.381 1327.39L411.381 1327.39ZM1075.07 1327.39C1014.15 1336.03 971.372 1392.64 980.014 1453.56C988.656 1514.49 1045.26 1557.26 1106.18 1548.62L1548.65 1548.62C1588.4 1549.05 1625.56 1528.31 1645.87 1493.75C1665.74 1459.18 1665.74 1416.83 1645.87 1382.27C1625.56 1347.7 1588.4 1326.96 1548.65 1327.39L1106.18 1327.39C1102.73 1327.39 1099.27 1327.39 1095.81 1327.39C1092.36 1327.39 1088.9 1327.39 1085.44 1327.39C1081.99 1327.39 1078.53 1327.39 1075.07 1327.39L1075.07 1327.39ZM411.381 1659.24C350.456 1667.88 307.679 1724.48 316.321 1785.41C324.963 1846.33 381.567 1889.11 442.492 1880.47L774.338 1880.47C814.09 1880.9 851.25 1860.16 871.558 1825.59C891.435 1791.03 891.435 1748.68 871.558 1714.11C851.25 1679.55 814.09 1658.81 774.338 1659.24L442.492 1659.24C439.035 1659.24 435.578 1659.24 432.121 1659.24C428.665 1659.24 425.208 1659.24 421.751 1659.24C418.294 1659.24 414.838 1659.24 411.381 1659.24L411.381 1659.24ZM1075.07 1659.24C1014.15 1667.88 971.372 1724.48 980.014 1785.41C988.656 1846.33 1045.26 1889.11 1106.18 1880.47L1548.65 1880.47C1588.4 1880.9 1625.56 1860.16 1645.87 1825.59C1665.74 1791.03 1665.74 1748.68 1645.87 1714.11C1625.56 1679.55 1588.4 1658.81 1548.65 1659.24L1106.18 1659.24C1102.73 1659.24 1099.27 1659.24 1095.81 1659.24C1092.36 1659.24 1088.9 1659.24 1085.44 1659.24C1081.99 1659.24 1078.53 1659.24 1075.07 1659.24L1075.07 1659.24ZM466.689 1991.08C405.765 1999.73 362.988 2056.33 371.629 2117.25C380.271 2178.18 436.875 2220.96 497.8 2212.31L774.339 2212.31C814.091 2212.75 851.251 2192.01 871.559 2157.44C891.435 2122.87 891.435 2080.53 871.559 2045.96C851.251 2011.39 814.091 1990.65 774.339 1991.08L497.8 1991.08C494.343 1991.08 490.887 1991.08 487.43 1991.08C483.973 1991.08 480.516 1991.08 477.06 1991.08C473.603 1991.08 470.146 1991.08 466.689 1991.08L466.689 1991.08ZM1075.07 1991.08C1014.15 1999.73 971.372 2056.33 980.014 2117.25C988.656 2178.18 1045.26 2220.96 1106.18 2212.31L1548.65 2212.31C1588.4 2212.75 1625.56 2192.01 1645.87 2157.44C1665.74 2122.87 1665.74 2080.53 1645.87 2045.96C1625.56 2011.39 1588.4 1990.65 1548.65 1991.08L1106.18 1991.08C1102.73 1991.08 1099.27 1991.08 1095.81 1991.08C1092.36 1991.08 1088.9 1991.08 1085.44 1991.08C1081.99 1991.08 1078.53 1991.08 1075.07 1991.08L1075.07 1991.08Z" id="Shape" fill="#03FF83" fill-rule="evenodd" stroke="none" />
    </g>
  </g>
</svg>