<?xml version="1.0" encoding="utf-8"?>
<svg width="3300px" height="3300px" viewBox="0 0 3300 3300" version="1.1" xmlns:xlink="http://www.w3.org/1999/xlink" xmlns="http://www.w3.org/2000/svg">
  <defs>
    <path d="M0 0L3300 0L3300 3300L0 3300L0 0Z" id="path_1" />
    <clipPath id="mask_1">
      <use xlink:href="#path_1" />
    </clipPath>
  </defs>
  <g id="Synchronize-icon">
    <path d="M0 0L3300 0L3300 3300L0 3300L0 0Z" id="Background" fill="none" fill-rule="evenodd" stroke="none" />
    <g clip-path="url(#mask_1)">
      <path d="M1650.03 330C947.228 330 371.791 883.008 333.635 1576.78C330.541 1624.22 352.971 1669.59 392.674 1695.89C432.377 1721.93 483.166 1724.77 525.447 1703.11C567.728 1681.45 595.314 1638.66 597.119 1591.22C627.799 1034.6 1085.16 594 1650.03 594C1952.7 594 2224.17 721.102 2416.24 924L2244.03 924C2196.33 923.227 2152.24 948.234 2128.27 989.484C2104.03 1030.48 2104.03 1081.52 2128.27 1122.52C2152.24 1163.77 2196.33 1188.77 2244.03 1188L2657.3 1188C2672.25 1190.58 2687.46 1190.58 2702.67 1188L2904.03 1188L2904.03 528C2904.54 492.422 2890.62 458.133 2865.35 432.867C2840.09 407.602 2805.8 393.68 2769.96 394.195C2697.26 395.227 2638.99 455.039 2640.03 528L2640.03 777.305C2397.94 502.992 2043.7 330 1650.03 330L1650.03 330ZM2840.08 1582.19C2767.12 1579.09 2705.76 1635.81 2702.92 1708.77C2672.24 2265.39 2214.88 2705.99 1650.02 2705.99C1347.35 2705.99 1076.13 2578.89 883.799 2375.99L1056.02 2375.99C1103.71 2376.77 1147.8 2351.76 1171.78 2310.51C1196.01 2269.52 1196.01 2218.47 1171.78 2177.48C1147.8 2136.23 1103.71 2111.22 1056.02 2111.99L641.455 2111.99C627.533 2109.93 613.611 2109.93 599.689 2111.99L396.017 2111.99L396.017 2771.99C395.244 2819.69 420.252 2863.77 461.502 2887.75C502.494 2911.98 553.541 2911.98 594.533 2887.75C635.783 2863.77 660.791 2819.69 660.017 2771.99L660.017 2522.69C902.103 2797 1256.34 2969.99 1650.02 2969.99C2352.81 2969.99 2928.25 2416.98 2966.41 1723.21C2968.99 1687.63 2956.87 1652.57 2933.15 1626.02C2909.17 1599.46 2875.66 1583.73 2840.08 1582.19L2840.08 1582.19Z" id="Shape" fill="#03FF83" fill-rule="evenodd" stroke="none" />
    </g>
  </g>
</svg>