<svg xmlns="http://www.w3.org/2000/svg" width="33.682" height="25" viewBox="0 0 33.682 25">
  <g id="Group_1" data-name="Group 1" transform="translate(-27 -24)">
    <path id="Polygon_1" data-name="Polygon 1" d="M6.037,3.439a1,1,0,0,1,1.926,0L13.645,23.73A1,1,0,0,1,12.682,25H1.318a1,1,0,0,1-.963-1.27Z" transform="translate(27 24)" fill="#03ff83"/>
    <path id="Polygon_2" data-name="Polygon 2" d="M6.037,3.439a1,1,0,0,1,1.926,0L13.645,23.73A1,1,0,0,1,12.682,25H1.318a1,1,0,0,1-.963-1.27Z" transform="translate(51 49) rotate(180)" fill="#7a9788"/>
    <path id="Path_1" data-name="Path 1" d="M6.037,3.439a1,1,0,0,1,1.926,0L13.645,23.73A1,1,0,0,1,12.682,25H1.318a1,1,0,0,1-.963-1.27Z" transform="translate(47 24)" fill="#03ff83"/>
  </g>
</svg>
