<svg xmlns="http://www.w3.org/2000/svg" width="1077.906" height="713.222" viewBox="0 0 1077.906 713.222">
  <g id="Group_58" data-name="Group 58" transform="translate(-105.406 -3530.309)">
    <g id="Group_45" data-name="Group 45" transform="translate(345.293 3625.487)">
      <path id="Path_485" data-name="Path 485" d="M0-473a302.771,302.771,0,0,1,93.562,14.819L54-336.425a174.749,174.749,0,0,0-54-8.553Z" transform="translate(307.507 473)" fill="#c5ffe2" stroke="#1d1d1d" stroke-width="20"/>
      <path id="Path_486" data-name="Path 486" d="M123.923-449.85C282.955-398.177,369.987-227.367,318.314-68.335L196.558-107.9a174.75,174.75,0,0,0-112.2-220.2Z" transform="translate(277.146 464.668)" fill="#c5ffe2" stroke="#1d1d1d" stroke-width="20"/>
      <path id="Path_487" data-name="Path 487" d="M303.323,123.923A302.772,302.772,0,0,1,62.734,329.405L42.707,202.959a174.75,174.75,0,0,0,138.86-118.6Z" transform="translate(292.137 272.411)" fill="#c5ffe2" stroke="#1d1d1d" stroke-width="20"/>
      <path id="Path_488" data-name="Path 488" d="M-125.526,131.81C-290.246,160.6-447.089,50.365-475.839-114.361s81.482-321.569,246.208-350.319l24,125.791A174.718,174.718,0,0,0-347.742-136.717,174.75,174.75,0,0,0-145.55,5.386Z" transform="translate(480.397 470.005)" fill="#c5ffe2" stroke="#1d1d1d" stroke-width="20"/>
      <path id="Path_489" data-name="Path 489" d="M-88.631-467.637A302.773,302.773,0,0,1-31.9-473v128.022a174.749,174.749,0,0,0-32.745,3.1Z" transform="translate(339.404 473)" fill="#c5ffe2" stroke="#1d1d1d" stroke-width="20"/>
    </g>
    <text id="_Diba" data-name="$Diba" transform="translate(650.466 3945.434)" fill="#7a9788" font-size="62" font-family="EngraversGothicBT-Regular, EngraversGothic BT"><tspan x="-77" y="0">$Diba</tspan></text>
    <g id="Group_55" data-name="Group 55" transform="translate(867.899 3690.879)">
      <text id="_25_" data-name="25%" transform="translate(309.642 25)" fill="#7a9788" font-size="30" font-family="EngraversGothicBT-Regular, EngraversGothic BT"><tspan x="-65" y="0">25%</tspan></text>
      <text id="PreSale:_250M" data-name="PreSale: 250M" transform="translate(306.392 74.431)" fill="#7a9788" font-size="18" font-family="EngraversGothicBT-Regular, EngraversGothic BT"><tspan x="-126" y="0">PreSale: 250M</tspan></text>
      <g id="Group_46" data-name="Group 46" transform="translate(0 46.63)">
        <path id="Path_490" data-name="Path 490" d="M-1171.329,3682.088l51.06-85.973h252.211" transform="translate(1182.472 -3596.115)" fill="none" stroke="#7a9788" stroke-linecap="round" stroke-width="2"/>
        <g id="Ellipse_13" data-name="Ellipse 13" transform="translate(0 84.492)" fill="#c5ffe2" stroke="#7a9788" stroke-width="2">
          <circle cx="6.401" cy="6.401" r="6.401" stroke="none"/>
          <circle cx="6.401" cy="6.401" r="5.401" fill="none"/>
        </g>
      </g>
    </g>
    <g id="Group_57" data-name="Group 57" transform="translate(106.406 3784.876)">
      <text id="_49.5_" data-name="49.5%" transform="translate(0 25)" fill="#7a9788" font-size="30" font-family="EngraversGothicBT-Regular, EngraversGothic BT"><tspan x="0" y="0">49.5%</tspan></text>
      <text id="Staking_Rewards:_495M" data-name="Staking &amp; Rewards: 495M" transform="translate(0 74.431)" fill="#7a9788" font-size="18" font-family="EngraversGothicBT-Regular, EngraversGothic BT"><tspan x="0" y="0">Staking &amp; Rewards: 495M</tspan></text>
      <g id="Group_49" data-name="Group 49" transform="translate(0 46.51)">
        <path id="Path_490-2" data-name="Path 490" d="M-868.059,3682.088l-51.06-85.973h-252.211" transform="translate(1171.329 -3596.115)" fill="none" stroke="#7a9788" stroke-linecap="round" stroke-width="2"/>
        <g id="Ellipse_13-2" data-name="Ellipse 13" transform="translate(301.611 84.492)" fill="#c5ffe2" stroke="#7a9788" stroke-width="2">
          <circle cx="6.401" cy="6.401" r="6.401" stroke="none"/>
          <circle cx="6.401" cy="6.401" r="5.401" fill="none"/>
        </g>
      </g>
    </g>
    <g id="Group_53" data-name="Group 53" transform="translate(319.965 3530.309)">
      <text id="_3_" data-name="3%" transform="translate(1.28 25)" fill="#7a9788" font-size="30" font-family="EngraversGothicBT-Regular, EngraversGothic BT"><tspan x="0" y="0">3%</tspan></text>
      <text id="Team:_30M" data-name="Team: 30M" transform="translate(1 74.431)" fill="#7a9788" font-size="18" font-family="EngraversGothicBT-Regular, EngraversGothic BT"><tspan x="0" y="0">Team: 30M</tspan></text>
      <g id="Group_50" data-name="Group 50" transform="translate(1.28 46.532)">
        <path id="Path_490-3" data-name="Path 490" d="M-868.059,3682.088l-51.06-85.973h-252.211" transform="translate(1171.329 -3596.115)" fill="none" stroke="#7a9788" stroke-linecap="round" stroke-width="2"/>
        <g id="Ellipse_13-3" data-name="Ellipse 13" transform="translate(301.611 84.492)" fill="#c5ffe2" stroke="#7a9788" stroke-width="2">
          <circle cx="6.401" cy="6.401" r="6.401" stroke="none"/>
          <circle cx="6.401" cy="6.401" r="5.401" fill="none"/>
        </g>
      </g>
    </g>
    <g id="Group_54" data-name="Group 54" transform="translate(686.108 3530.309)">
      <text id="_5_" data-name="5%" transform="translate(311.405 25)" fill="#7a9788" font-size="30" font-family="EngraversGothicBT-Regular, EngraversGothic BT"><tspan x="-45" y="0">5%</tspan></text>
      <text id="Private_Sale:_50M" data-name="Private Sale: 50M" transform="translate(304.947 74.431)" fill="#7a9788" font-size="18" font-family="EngraversGothicBT-Regular, EngraversGothic BT"><tspan x="-147" y="0">Private Sale: 50M</tspan></text>
      <g id="Group_51" data-name="Group 51" transform="translate(0 46.532)">
        <path id="Path_490-4" data-name="Path 490" d="M-1171.329,3682.088l51.06-85.973h252.211" transform="translate(1182.472 -3596.115)" fill="none" stroke="#7a9788" stroke-linecap="round" stroke-width="2"/>
        <g id="Ellipse_13-4" data-name="Ellipse 13" transform="translate(0 84.492)" fill="#c5ffe2" stroke="#7a9788" stroke-width="2">
          <circle cx="6.401" cy="6.401" r="6.401" stroke="none"/>
          <circle cx="6.401" cy="6.401" r="5.401" fill="none"/>
        </g>
      </g>
    </g>
    <g id="Group_56" data-name="Group 56" transform="translate(794.927 4114.532)">
      <text id="_17.5_" data-name="17.5%" transform="translate(307.636 75.567)" fill="#7a9788" font-size="30" font-family="EngraversGothicBT-Regular, EngraversGothic BT"><tspan x="-95" y="0">17.5%</tspan></text>
      <text id="Liquidity:_175M" data-name="Liquidity: 175M" transform="translate(305.35 124.998)" fill="#7a9788" font-size="18" font-family="EngraversGothicBT-Regular, EngraversGothic BT"><tspan x="-126" y="0">Liquidity: 175M</tspan></text>
      <g id="Group_52" data-name="Group 52" transform="translate(0 0)">
        <path id="Path_490-5" data-name="Path 490" d="M-1171.329,3596.115l51.06,85.973h252.211" transform="translate(1182.472 -3584.794)" fill="none" stroke="#7a9788" stroke-linecap="round" stroke-width="2"/>
        <g id="Ellipse_13-5" data-name="Ellipse 13" fill="#c5ffe2" stroke="#7a9788" stroke-width="2">
          <circle cx="6.401" cy="6.401" r="6.401" stroke="none"/>
          <circle cx="6.401" cy="6.401" r="5.401" fill="none"/>
        </g>
      </g>
    </g>
  </g>
</svg>
