<svg xmlns="http://www.w3.org/2000/svg" width="2499.124" height="1701.431" viewBox="0 0 2499.124 1701.431">
  <g id="Group_12" data-name="Group 12" transform="translate(258.296 -166.676)">
    <path id="Path_2" data-name="Path 2" d="M2135.772,1420.8s-1138.61,264.27-1233.494,201.014S780.6,1089.85,690.546,1045.483s-294.756-9.664-360.208-177.468S372.508,226.668,68.527,196.8-258.3,166.926-258.3,166.926" fill="none" stroke="#707070" stroke-width="0.5"/>
    <path id="Path_3" data-name="Path 3" d="M2135.772,1420.8s-1138.61,264.27-1233.494,201.014S780.6,1089.85,690.546,1045.483s-294.756-9.664-360.208-177.468S372.508,226.668,68.527,196.8-258.3,166.926-258.3,166.926" transform="translate(105 95.074)" fill="none" stroke="#707070" stroke-width="0.5"/>
    <path id="Path_4" data-name="Path 4" d="M2135.772,1420.8s-1138.61,264.27-1233.494,201.014S780.6,1089.85,690.546,1045.483s-294.756-9.664-360.208-177.468S372.508,226.668,68.527,196.8-258.3,166.926-258.3,166.926" transform="translate(84 236.074)" fill="none" stroke="#707070" stroke-width="0.5"/>
  </g>
</svg>
